<mxfile host="app.diagrams.net" agent="Mozilla/5.0 (Windows NT 10.0; Win64; x64) AppleWebKit/537.36 (KHTML, like Gecko) Chrome/132.0.0.0 Safari/537.36" version="26.0.6">
  <diagram name="Page-1" id="U6aiPvAN5z4Rupum-5LO">
    <mxGraphModel dx="1195" dy="662" grid="0" gridSize="10" guides="1" tooltips="1" connect="1" arrows="1" fold="1" page="1" pageScale="1" pageWidth="827" pageHeight="1169" math="0" shadow="0">
      <root>
        <mxCell id="0" />
        <mxCell id="1" parent="0" />
        <mxCell id="vFp5qnoEQJDvf5CFO5h7-2" value="Windows Server" style="outlineConnect=0;dashed=0;verticalLabelPosition=bottom;verticalAlign=top;align=center;html=1;shape=mxgraph.aws3.traditional_server;fillColor=#7D7C7C;gradientColor=none;" vertex="1" parent="1">
          <mxGeometry x="480" y="55.5" width="46.5" height="63" as="geometry" />
        </mxCell>
        <mxCell id="vFp5qnoEQJDvf5CFO5h7-11" style="edgeStyle=orthogonalEdgeStyle;rounded=0;orthogonalLoop=1;jettySize=auto;html=1;" edge="1" parent="1" source="vFp5qnoEQJDvf5CFO5h7-8" target="vFp5qnoEQJDvf5CFO5h7-9">
          <mxGeometry relative="1" as="geometry" />
        </mxCell>
        <mxCell id="vFp5qnoEQJDvf5CFO5h7-12" value="RDP Brute Force" style="edgeLabel;html=1;align=center;verticalAlign=middle;resizable=0;points=[];" vertex="1" connectable="0" parent="vFp5qnoEQJDvf5CFO5h7-11">
          <mxGeometry x="-0.0791" y="1" relative="1" as="geometry">
            <mxPoint y="1" as="offset" />
          </mxGeometry>
        </mxCell>
        <mxCell id="vFp5qnoEQJDvf5CFO5h7-8" value="Attacker Laptop&lt;div&gt;Kali Linux&lt;/div&gt;" style="verticalLabelPosition=bottom;html=1;verticalAlign=top;align=center;strokeColor=none;fillColor=#CC0000;shape=mxgraph.azure.computer;pointerEvents=1;" vertex="1" parent="1">
          <mxGeometry x="40" y="64.5" width="50" height="45" as="geometry" />
        </mxCell>
        <mxCell id="vFp5qnoEQJDvf5CFO5h7-9" value="Internet" style="ellipse;shape=cloud;whiteSpace=wrap;html=1;" vertex="1" parent="1">
          <mxGeometry x="244" y="47" width="120" height="80" as="geometry" />
        </mxCell>
        <mxCell id="vFp5qnoEQJDvf5CFO5h7-10" value="Phase 1&lt;br&gt;Brute Force" style="text;html=1;align=center;verticalAlign=middle;resizable=0;points=[];autosize=1;strokeColor=none;fillColor=none;fontStyle=1" vertex="1" parent="1">
          <mxGeometry x="216" y="10" width="90" height="40" as="geometry" />
        </mxCell>
        <mxCell id="vFp5qnoEQJDvf5CFO5h7-13" style="rounded=0;orthogonalLoop=1;jettySize=auto;html=1;entryX=0;entryY=0.5;entryDx=0;entryDy=0;entryPerimeter=0;" edge="1" parent="1" source="vFp5qnoEQJDvf5CFO5h7-9" target="vFp5qnoEQJDvf5CFO5h7-2">
          <mxGeometry relative="1" as="geometry" />
        </mxCell>
        <mxCell id="vFp5qnoEQJDvf5CFO5h7-21" value="Windows Server" style="outlineConnect=0;dashed=0;verticalLabelPosition=bottom;verticalAlign=top;align=center;html=1;shape=mxgraph.aws3.traditional_server;fillColor=#7D7C7C;gradientColor=none;" vertex="1" parent="1">
          <mxGeometry x="480" y="143.5" width="46.5" height="63" as="geometry" />
        </mxCell>
        <mxCell id="vFp5qnoEQJDvf5CFO5h7-22" style="edgeStyle=orthogonalEdgeStyle;rounded=0;orthogonalLoop=1;jettySize=auto;html=1;" edge="1" source="vFp5qnoEQJDvf5CFO5h7-24" target="vFp5qnoEQJDvf5CFO5h7-25" parent="1">
          <mxGeometry relative="1" as="geometry" />
        </mxCell>
        <mxCell id="vFp5qnoEQJDvf5CFO5h7-23" value="Successful Authentication" style="edgeLabel;html=1;align=center;verticalAlign=middle;resizable=0;points=[];fontColor=#009900;fontStyle=1" vertex="1" connectable="0" parent="vFp5qnoEQJDvf5CFO5h7-22">
          <mxGeometry x="-0.0791" y="1" relative="1" as="geometry">
            <mxPoint y="1" as="offset" />
          </mxGeometry>
        </mxCell>
        <mxCell id="vFp5qnoEQJDvf5CFO5h7-24" value="Attacker Laptop&lt;div&gt;Kali Linux&lt;/div&gt;" style="verticalLabelPosition=bottom;html=1;verticalAlign=top;align=center;strokeColor=none;fillColor=#CC0000;shape=mxgraph.azure.computer;pointerEvents=1;" vertex="1" parent="1">
          <mxGeometry x="40" y="152.5" width="50" height="45" as="geometry" />
        </mxCell>
        <mxCell id="vFp5qnoEQJDvf5CFO5h7-25" value="Internet" style="ellipse;shape=cloud;whiteSpace=wrap;html=1;" vertex="1" parent="1">
          <mxGeometry x="244" y="135" width="120" height="80" as="geometry" />
        </mxCell>
        <mxCell id="vFp5qnoEQJDvf5CFO5h7-26" style="rounded=0;orthogonalLoop=1;jettySize=auto;html=1;entryX=0;entryY=0.5;entryDx=0;entryDy=0;entryPerimeter=0;" edge="1" source="vFp5qnoEQJDvf5CFO5h7-25" target="vFp5qnoEQJDvf5CFO5h7-21" parent="1">
          <mxGeometry relative="1" as="geometry" />
        </mxCell>
        <mxCell id="vFp5qnoEQJDvf5CFO5h7-27" value="Phase 2&lt;br&gt;Discovery" style="text;html=1;align=center;verticalAlign=middle;resizable=0;points=[];autosize=1;strokeColor=none;fillColor=none;fontStyle=1" vertex="1" parent="1">
          <mxGeometry x="221" y="241" width="80" height="40" as="geometry" />
        </mxCell>
        <mxCell id="vFp5qnoEQJDvf5CFO5h7-33" value="Windows Server" style="outlineConnect=0;dashed=0;verticalLabelPosition=bottom;verticalAlign=top;align=center;html=1;shape=mxgraph.aws3.traditional_server;fillColor=#7D7C7C;gradientColor=none;" vertex="1" parent="1">
          <mxGeometry x="480" y="287.5" width="46.5" height="63" as="geometry" />
        </mxCell>
        <mxCell id="vFp5qnoEQJDvf5CFO5h7-34" style="edgeStyle=orthogonalEdgeStyle;rounded=0;orthogonalLoop=1;jettySize=auto;html=1;" edge="1" source="vFp5qnoEQJDvf5CFO5h7-36" target="vFp5qnoEQJDvf5CFO5h7-37" parent="1">
          <mxGeometry relative="1" as="geometry" />
        </mxCell>
        <mxCell id="vFp5qnoEQJDvf5CFO5h7-35" value="Discovery via RDP" style="edgeLabel;html=1;align=center;verticalAlign=middle;resizable=0;points=[];" vertex="1" connectable="0" parent="vFp5qnoEQJDvf5CFO5h7-34">
          <mxGeometry x="-0.0791" y="1" relative="1" as="geometry">
            <mxPoint y="1" as="offset" />
          </mxGeometry>
        </mxCell>
        <mxCell id="vFp5qnoEQJDvf5CFO5h7-36" value="Attacker Laptop&lt;div&gt;Kali Linux&lt;/div&gt;" style="verticalLabelPosition=bottom;html=1;verticalAlign=top;align=center;strokeColor=none;fillColor=#CC0000;shape=mxgraph.azure.computer;pointerEvents=1;" vertex="1" parent="1">
          <mxGeometry x="40" y="296.5" width="50" height="45" as="geometry" />
        </mxCell>
        <mxCell id="vFp5qnoEQJDvf5CFO5h7-37" value="Internet" style="ellipse;shape=cloud;whiteSpace=wrap;html=1;" vertex="1" parent="1">
          <mxGeometry x="244" y="279" width="120" height="80" as="geometry" />
        </mxCell>
        <mxCell id="vFp5qnoEQJDvf5CFO5h7-38" style="rounded=0;orthogonalLoop=1;jettySize=auto;html=1;entryX=0;entryY=0.5;entryDx=0;entryDy=0;entryPerimeter=0;" edge="1" source="vFp5qnoEQJDvf5CFO5h7-37" target="vFp5qnoEQJDvf5CFO5h7-33" parent="1">
          <mxGeometry relative="1" as="geometry" />
        </mxCell>
        <mxCell id="vFp5qnoEQJDvf5CFO5h7-39" value="whoami&lt;br&gt;ipconfig&lt;div&gt;net user&lt;/div&gt;&lt;div&gt;net group&lt;br&gt;&lt;div&gt;&lt;br&gt;&lt;/div&gt;&lt;/div&gt;" style="text;html=1;align=center;verticalAlign=middle;resizable=0;points=[];autosize=1;strokeColor=none;fillColor=none;" vertex="1" parent="1">
          <mxGeometry x="269" y="350.5" width="70" height="90" as="geometry" />
        </mxCell>
        <mxCell id="vFp5qnoEQJDvf5CFO5h7-40" value="Phase 3&lt;br&gt;Defense Evasion" style="text;html=1;align=center;verticalAlign=middle;resizable=0;points=[];autosize=1;strokeColor=none;fillColor=none;fontStyle=1" vertex="1" parent="1">
          <mxGeometry x="206" y="439.5" width="110" height="40" as="geometry" />
        </mxCell>
        <mxCell id="vFp5qnoEQJDvf5CFO5h7-72" value="Mythic C2" style="outlineConnect=0;dashed=0;verticalLabelPosition=bottom;verticalAlign=top;align=center;html=1;shape=mxgraph.aws3.traditional_server;fillColor=#CC0000;gradientColor=none;" vertex="1" parent="1">
          <mxGeometry x="480" y="647.5" width="46.5" height="63" as="geometry" />
        </mxCell>
        <mxCell id="vFp5qnoEQJDvf5CFO5h7-73" value="Phase 4&lt;br&gt;Execution" style="text;html=1;align=center;verticalAlign=middle;resizable=0;points=[];autosize=1;strokeColor=none;fillColor=none;fontStyle=1" vertex="1" parent="1">
          <mxGeometry x="221" y="600" width="80" height="40" as="geometry" />
        </mxCell>
        <mxCell id="vFp5qnoEQJDvf5CFO5h7-74" value="Windows Server" style="outlineConnect=0;dashed=0;verticalLabelPosition=bottom;verticalAlign=top;align=center;html=1;shape=mxgraph.aws3.traditional_server;fillColor=#7D7C7C;gradientColor=none;" vertex="1" parent="1">
          <mxGeometry x="40" y="647.5" width="46.5" height="63" as="geometry" />
        </mxCell>
        <mxCell id="vFp5qnoEQJDvf5CFO5h7-75" style="rounded=0;orthogonalLoop=1;jettySize=auto;html=1;" edge="1" source="vFp5qnoEQJDvf5CFO5h7-77" target="vFp5qnoEQJDvf5CFO5h7-72" parent="1">
          <mxGeometry relative="1" as="geometry" />
        </mxCell>
        <mxCell id="vFp5qnoEQJDvf5CFO5h7-76" value="Mythic Agent" style="edgeLabel;html=1;align=center;verticalAlign=middle;resizable=0;points=[];" vertex="1" connectable="0" parent="vFp5qnoEQJDvf5CFO5h7-75">
          <mxGeometry x="-0.2644" relative="1" as="geometry">
            <mxPoint as="offset" />
          </mxGeometry>
        </mxCell>
        <mxCell id="vFp5qnoEQJDvf5CFO5h7-77" value="Internet" style="ellipse;shape=cloud;whiteSpace=wrap;html=1;" vertex="1" parent="1">
          <mxGeometry x="244" y="639" width="120" height="80" as="geometry" />
        </mxCell>
        <mxCell id="vFp5qnoEQJDvf5CFO5h7-78" style="edgeStyle=orthogonalEdgeStyle;rounded=0;orthogonalLoop=1;jettySize=auto;html=1;entryX=0.05;entryY=0.5;entryDx=0;entryDy=0;entryPerimeter=0;" edge="1" source="vFp5qnoEQJDvf5CFO5h7-74" target="vFp5qnoEQJDvf5CFO5h7-77" parent="1">
          <mxGeometry relative="1" as="geometry" />
        </mxCell>
        <mxCell id="vFp5qnoEQJDvf5CFO5h7-79" value="PowerShell IEX" style="edgeLabel;html=1;align=left;verticalAlign=middle;resizable=0;points=[];" vertex="1" connectable="0" parent="vFp5qnoEQJDvf5CFO5h7-78">
          <mxGeometry x="-0.4883" relative="1" as="geometry">
            <mxPoint as="offset" />
          </mxGeometry>
        </mxCell>
        <mxCell id="vFp5qnoEQJDvf5CFO5h7-80" value="Mythic C2" style="outlineConnect=0;dashed=0;verticalLabelPosition=bottom;verticalAlign=top;align=center;html=1;shape=mxgraph.aws3.traditional_server;fillColor=#CC0000;gradientColor=none;" vertex="1" parent="1">
          <mxGeometry x="480" y="738.5" width="46.5" height="63" as="geometry" />
        </mxCell>
        <mxCell id="vFp5qnoEQJDvf5CFO5h7-81" value="Windows Server" style="outlineConnect=0;dashed=0;verticalLabelPosition=bottom;verticalAlign=top;align=center;html=1;shape=mxgraph.aws3.traditional_server;fillColor=#7D7C7C;gradientColor=none;" vertex="1" parent="1">
          <mxGeometry x="40" y="738.5" width="46.5" height="63" as="geometry" />
        </mxCell>
        <mxCell id="vFp5qnoEQJDvf5CFO5h7-82" style="rounded=0;orthogonalLoop=1;jettySize=auto;html=1;endArrow=none;endFill=0;startArrow=classic;startFill=1;" edge="1" source="vFp5qnoEQJDvf5CFO5h7-84" target="vFp5qnoEQJDvf5CFO5h7-80" parent="1">
          <mxGeometry relative="1" as="geometry" />
        </mxCell>
        <mxCell id="vFp5qnoEQJDvf5CFO5h7-83" value="Mythic Agent" style="edgeLabel;html=1;align=left;verticalAlign=middle;resizable=0;points=[];" vertex="1" connectable="0" parent="vFp5qnoEQJDvf5CFO5h7-82">
          <mxGeometry x="-0.2644" relative="1" as="geometry">
            <mxPoint as="offset" />
          </mxGeometry>
        </mxCell>
        <mxCell id="vFp5qnoEQJDvf5CFO5h7-84" value="Internet" style="ellipse;shape=cloud;whiteSpace=wrap;html=1;" vertex="1" parent="1">
          <mxGeometry x="244" y="730" width="120" height="80" as="geometry" />
        </mxCell>
        <mxCell id="vFp5qnoEQJDvf5CFO5h7-85" style="edgeStyle=orthogonalEdgeStyle;rounded=0;orthogonalLoop=1;jettySize=auto;html=1;entryX=0.05;entryY=0.5;entryDx=0;entryDy=0;entryPerimeter=0;endArrow=none;endFill=0;startArrow=classic;startFill=1;" edge="1" source="vFp5qnoEQJDvf5CFO5h7-81" target="vFp5qnoEQJDvf5CFO5h7-84" parent="1">
          <mxGeometry relative="1" as="geometry" />
        </mxCell>
        <mxCell id="vFp5qnoEQJDvf5CFO5h7-86" value="Mythic C2" style="outlineConnect=0;dashed=0;verticalLabelPosition=bottom;verticalAlign=top;align=center;html=1;shape=mxgraph.aws3.traditional_server;fillColor=#CC0000;gradientColor=none;" vertex="1" parent="1">
          <mxGeometry x="480" y="828.5" width="46.5" height="63" as="geometry" />
        </mxCell>
        <mxCell id="vFp5qnoEQJDvf5CFO5h7-87" value="Windows Server" style="outlineConnect=0;dashed=0;verticalLabelPosition=bottom;verticalAlign=top;align=center;html=1;shape=mxgraph.aws3.traditional_server;fillColor=#7D7C7C;gradientColor=none;" vertex="1" parent="1">
          <mxGeometry x="40" y="828.5" width="46.5" height="63" as="geometry" />
        </mxCell>
        <mxCell id="vFp5qnoEQJDvf5CFO5h7-88" style="rounded=0;orthogonalLoop=1;jettySize=auto;html=1;endArrow=none;endFill=0;startArrow=classic;startFill=1;" edge="1" source="vFp5qnoEQJDvf5CFO5h7-89" target="vFp5qnoEQJDvf5CFO5h7-86" parent="1">
          <mxGeometry relative="1" as="geometry" />
        </mxCell>
        <mxCell id="vFp5qnoEQJDvf5CFO5h7-89" value="Internet" style="ellipse;shape=cloud;whiteSpace=wrap;html=1;" vertex="1" parent="1">
          <mxGeometry x="244" y="820" width="120" height="80" as="geometry" />
        </mxCell>
        <mxCell id="vFp5qnoEQJDvf5CFO5h7-90" style="edgeStyle=orthogonalEdgeStyle;rounded=0;orthogonalLoop=1;jettySize=auto;html=1;entryX=0.05;entryY=0.5;entryDx=0;entryDy=0;entryPerimeter=0;endArrow=none;endFill=0;startArrow=classic;startFill=1;" edge="1" source="vFp5qnoEQJDvf5CFO5h7-87" target="vFp5qnoEQJDvf5CFO5h7-89" parent="1">
          <mxGeometry relative="1" as="geometry" />
        </mxCell>
        <mxCell id="vFp5qnoEQJDvf5CFO5h7-91" value="Execute Mythic Agent" style="edgeLabel;html=1;align=left;verticalAlign=middle;resizable=0;points=[];" vertex="1" connectable="0" parent="vFp5qnoEQJDvf5CFO5h7-90">
          <mxGeometry x="-0.5902" y="-1" relative="1" as="geometry">
            <mxPoint as="offset" />
          </mxGeometry>
        </mxCell>
        <mxCell id="vFp5qnoEQJDvf5CFO5h7-92" value="Windows Server" style="outlineConnect=0;dashed=0;verticalLabelPosition=bottom;verticalAlign=top;align=center;html=1;shape=mxgraph.aws3.traditional_server;fillColor=#7D7C7C;gradientColor=none;" vertex="1" parent="1">
          <mxGeometry x="480" y="477.5" width="46.5" height="63" as="geometry" />
        </mxCell>
        <mxCell id="vFp5qnoEQJDvf5CFO5h7-93" style="edgeStyle=orthogonalEdgeStyle;rounded=0;orthogonalLoop=1;jettySize=auto;html=1;" edge="1" source="vFp5qnoEQJDvf5CFO5h7-95" target="vFp5qnoEQJDvf5CFO5h7-96" parent="1">
          <mxGeometry relative="1" as="geometry" />
        </mxCell>
        <mxCell id="vFp5qnoEQJDvf5CFO5h7-94" value="RDP" style="edgeLabel;html=1;align=center;verticalAlign=middle;resizable=0;points=[];" vertex="1" connectable="0" parent="vFp5qnoEQJDvf5CFO5h7-93">
          <mxGeometry x="-0.0791" y="1" relative="1" as="geometry">
            <mxPoint y="1" as="offset" />
          </mxGeometry>
        </mxCell>
        <mxCell id="vFp5qnoEQJDvf5CFO5h7-95" value="Attacker Laptop&lt;div&gt;Kali Linux&lt;/div&gt;" style="verticalLabelPosition=bottom;html=1;verticalAlign=top;align=center;strokeColor=none;fillColor=#CC0000;shape=mxgraph.azure.computer;pointerEvents=1;" vertex="1" parent="1">
          <mxGeometry x="40" y="486.5" width="50" height="45" as="geometry" />
        </mxCell>
        <mxCell id="vFp5qnoEQJDvf5CFO5h7-96" value="Internet" style="ellipse;shape=cloud;whiteSpace=wrap;html=1;" vertex="1" parent="1">
          <mxGeometry x="244" y="469" width="120" height="80" as="geometry" />
        </mxCell>
        <mxCell id="vFp5qnoEQJDvf5CFO5h7-97" style="rounded=0;orthogonalLoop=1;jettySize=auto;html=1;entryX=0;entryY=0.5;entryDx=0;entryDy=0;entryPerimeter=0;" edge="1" source="vFp5qnoEQJDvf5CFO5h7-96" target="vFp5qnoEQJDvf5CFO5h7-92" parent="1">
          <mxGeometry relative="1" as="geometry" />
        </mxCell>
        <mxCell id="vFp5qnoEQJDvf5CFO5h7-98" value="Disable Defender" style="edgeLabel;html=1;align=center;verticalAlign=middle;resizable=0;points=[];" vertex="1" connectable="0" parent="vFp5qnoEQJDvf5CFO5h7-97">
          <mxGeometry x="-0.4368" y="-1" relative="1" as="geometry">
            <mxPoint as="offset" />
          </mxGeometry>
        </mxCell>
        <mxCell id="vFp5qnoEQJDvf5CFO5h7-99" value="Phase 5&lt;br&gt;Command &amp;amp; Control" style="text;html=1;align=center;verticalAlign=middle;resizable=0;points=[];autosize=1;strokeColor=none;fillColor=none;fontStyle=1" vertex="1" parent="1">
          <mxGeometry x="196" y="919" width="130" height="40" as="geometry" />
        </mxCell>
        <mxCell id="vFp5qnoEQJDvf5CFO5h7-100" value="Mythic C2" style="outlineConnect=0;dashed=0;verticalLabelPosition=bottom;verticalAlign=top;align=center;html=1;shape=mxgraph.aws3.traditional_server;fillColor=#CC0000;gradientColor=none;" vertex="1" parent="1">
          <mxGeometry x="480" y="957.5" width="46.5" height="63" as="geometry" />
        </mxCell>
        <mxCell id="vFp5qnoEQJDvf5CFO5h7-101" value="Windows Server" style="outlineConnect=0;dashed=0;verticalLabelPosition=bottom;verticalAlign=top;align=center;html=1;shape=mxgraph.aws3.traditional_server;fillColor=#7D7C7C;gradientColor=none;" vertex="1" parent="1">
          <mxGeometry x="40" y="957.5" width="46.5" height="63" as="geometry" />
        </mxCell>
        <mxCell id="vFp5qnoEQJDvf5CFO5h7-102" style="rounded=0;orthogonalLoop=1;jettySize=auto;html=1;endArrow=classic;endFill=1;startArrow=none;startFill=0;" edge="1" source="vFp5qnoEQJDvf5CFO5h7-103" target="vFp5qnoEQJDvf5CFO5h7-100" parent="1">
          <mxGeometry relative="1" as="geometry" />
        </mxCell>
        <mxCell id="vFp5qnoEQJDvf5CFO5h7-103" value="Internet" style="ellipse;shape=cloud;whiteSpace=wrap;html=1;" vertex="1" parent="1">
          <mxGeometry x="244" y="949" width="120" height="80" as="geometry" />
        </mxCell>
        <mxCell id="vFp5qnoEQJDvf5CFO5h7-104" style="edgeStyle=orthogonalEdgeStyle;rounded=0;orthogonalLoop=1;jettySize=auto;html=1;entryX=0.05;entryY=0.5;entryDx=0;entryDy=0;entryPerimeter=0;endArrow=classic;endFill=1;startArrow=none;startFill=0;" edge="1" source="vFp5qnoEQJDvf5CFO5h7-101" target="vFp5qnoEQJDvf5CFO5h7-103" parent="1">
          <mxGeometry relative="1" as="geometry" />
        </mxCell>
        <mxCell id="vFp5qnoEQJDvf5CFO5h7-105" value="Establish C2" style="edgeLabel;html=1;align=left;verticalAlign=middle;resizable=0;points=[];" vertex="1" connectable="0" parent="vFp5qnoEQJDvf5CFO5h7-104">
          <mxGeometry x="-0.5902" y="-1" relative="1" as="geometry">
            <mxPoint as="offset" />
          </mxGeometry>
        </mxCell>
        <mxCell id="vFp5qnoEQJDvf5CFO5h7-106" value="Create fake passwords file named passwords.txt" style="text;html=1;align=center;verticalAlign=middle;resizable=0;points=[];autosize=1;strokeColor=none;fillColor=none;" vertex="1" parent="1">
          <mxGeometry x="121" y="1080" width="280" height="30" as="geometry" />
        </mxCell>
        <mxCell id="vFp5qnoEQJDvf5CFO5h7-107" value="Phase 6&lt;br&gt;Exfiltration" style="text;html=1;align=center;verticalAlign=middle;resizable=0;points=[];autosize=1;strokeColor=none;fillColor=none;fontStyle=1" vertex="1" parent="1">
          <mxGeometry x="221" y="1050" width="80" height="40" as="geometry" />
        </mxCell>
        <mxCell id="vFp5qnoEQJDvf5CFO5h7-108" value="Mythic C2" style="outlineConnect=0;dashed=0;verticalLabelPosition=bottom;verticalAlign=top;align=center;html=1;shape=mxgraph.aws3.traditional_server;fillColor=#CC0000;gradientColor=none;" vertex="1" parent="1">
          <mxGeometry x="480" y="1118.5" width="46.5" height="63" as="geometry" />
        </mxCell>
        <mxCell id="vFp5qnoEQJDvf5CFO5h7-109" value="Windows Server" style="outlineConnect=0;dashed=0;verticalLabelPosition=bottom;verticalAlign=top;align=center;html=1;shape=mxgraph.aws3.traditional_server;fillColor=#7D7C7C;gradientColor=none;" vertex="1" parent="1">
          <mxGeometry x="40" y="1118.5" width="46.5" height="63" as="geometry" />
        </mxCell>
        <mxCell id="vFp5qnoEQJDvf5CFO5h7-110" style="rounded=0;orthogonalLoop=1;jettySize=auto;html=1;endArrow=none;endFill=0;startArrow=classic;startFill=1;" edge="1" source="vFp5qnoEQJDvf5CFO5h7-111" target="vFp5qnoEQJDvf5CFO5h7-108" parent="1">
          <mxGeometry relative="1" as="geometry" />
        </mxCell>
        <mxCell id="vFp5qnoEQJDvf5CFO5h7-114" value="&lt;font style=&quot;font-size: 9px;&quot;&gt;Download passwords.txt&lt;/font&gt;" style="edgeLabel;html=1;align=left;verticalAlign=middle;resizable=0;points=[];" vertex="1" connectable="0" parent="vFp5qnoEQJDvf5CFO5h7-110">
          <mxGeometry x="-0.2356" y="2" relative="1" as="geometry">
            <mxPoint as="offset" />
          </mxGeometry>
        </mxCell>
        <mxCell id="vFp5qnoEQJDvf5CFO5h7-111" value="Internet" style="ellipse;shape=cloud;whiteSpace=wrap;html=1;" vertex="1" parent="1">
          <mxGeometry x="244" y="1110" width="120" height="80" as="geometry" />
        </mxCell>
        <mxCell id="vFp5qnoEQJDvf5CFO5h7-112" style="edgeStyle=orthogonalEdgeStyle;rounded=0;orthogonalLoop=1;jettySize=auto;html=1;entryX=0.05;entryY=0.5;entryDx=0;entryDy=0;entryPerimeter=0;endArrow=none;endFill=0;startArrow=classic;startFill=1;" edge="1" source="vFp5qnoEQJDvf5CFO5h7-109" target="vFp5qnoEQJDvf5CFO5h7-111" parent="1">
          <mxGeometry relative="1" as="geometry" />
        </mxCell>
        <mxCell id="vFp5qnoEQJDvf5CFO5h7-113" value="Execute Mythic Agent" style="edgeLabel;html=1;align=left;verticalAlign=middle;resizable=0;points=[];" vertex="1" connectable="0" parent="vFp5qnoEQJDvf5CFO5h7-112">
          <mxGeometry x="-0.5902" y="-1" relative="1" as="geometry">
            <mxPoint as="offset" />
          </mxGeometry>
        </mxCell>
      </root>
    </mxGraphModel>
  </diagram>
</mxfile>
